<?xml version="1.0" standalone="no"?>
<!DOCTYPE svg PUBLIC "-//W3C//DTD SVG 20010904//EN"
 "http://www.w3.org/TR/2001/REC-SVG-20010904/DTD/svg10.dtd">
<svg version="1.0" xmlns="http://www.w3.org/2000/svg"
 width="500.000000pt" height="500.000000pt" viewBox="0 0 500.000000 500.000000"
 preserveAspectRatio="xMidYMid meet">

<g transform="translate(0.000000,500.000000) scale(0.100000,-0.100000)"
fill="#000000" stroke="none">
<path d="M1282 2809 l3 -41 -40 -4 c-63 -7 -65 -9 -65 -64 l0 -50 -45 0 c-25
0 -45 -4 -45 -10 0 -5 20 -10 45 -10 l45 0 0 -60 0 -60 -45 0 c-25 0 -45 -4
-45 -10 0 -5 20 -10 45 -10 l46 0 -3 -62 c-3 -67 -1 -65 -63 -56 -12 2 -21 -4
-23 -15 -3 -15 3 -17 40 -15 l43 3 3 -45 c4 -59 16 -70 70 -70 l45 0 -7 -40
c-6 -36 -4 -40 14 -40 18 0 20 4 14 40 l-7 40 62 0 61 0 0 -40 c0 -22 5 -40
10 -40 6 0 10 18 10 40 l0 40 65 0 64 0 -1 -35 c-1 -19 2 -38 5 -42 4 -3 7 12
7 35 l0 42 44 0 c27 0 51 6 60 16 10 9 16 33 16 60 l0 44 41 0 c22 0 38 4 35
9 -3 4 -21 7 -41 6 l-35 -1 0 63 0 63 40 0 c22 0 40 5 40 10 0 6 -18 10 -40
10 l-40 0 0 61 0 62 40 -7 c36 -6 40 -4 40 14 0 18 -4 20 -40 14 l-40 -7 0 40
c0 54 -18 75 -66 78 -21 1 -42 3 -46 4 -5 0 -9 20 -10 44 l-1 42 -4 -40 c-3
-22 -8 -42 -13 -45 -7 -5 -80 -5 -112 -1 -5 1 -8 19 -8 41 0 22 -4 40 -10 40
-5 0 -10 -19 -10 -42 l0 -43 -61 0 -61 -1 7 43 c6 39 4 43 -15 43 -18 0 -20
-5 -18 -41z m396 -67 c9 -7 12 -63 10 -248 l-3 -239 -239 -3 c-185 -2 -241 1
-248 10 -13 22 -10 462 4 476 14 14 454 17 476 4z"/>
<path d="M1373 2669 c-3 -12 -14 -19 -28 -19 -25 0 -65 -42 -65 -69 0 -9 -7
-24 -15 -35 -11 -14 -12 -24 -4 -38 8 -14 8 -23 0 -31 -18 -18 -13 -65 9 -87
11 -11 20 -26 20 -34 0 -28 54 -51 113 -47 20 1 51 1 75 0 9 0 31 1 47 4 17 3
35 5 42 6 6 0 15 11 19 24 4 12 18 35 31 51 19 22 23 35 17 55 -4 14 -8 44 -8
65 -1 22 -7 41 -14 44 -7 2 -12 15 -12 28 0 28 -32 64 -58 64 -9 0 -23 9 -29
19 -10 15 -24 19 -74 19 -52 0 -62 -3 -66 -19z m127 -23 c0 -19 4 -22 29 -18
21 3 33 -2 44 -18 9 -12 13 -29 10 -37 -3 -8 3 -20 13 -28 17 -12 17 -17 6
-35 -11 -19 -11 -25 4 -41 21 -23 12 -65 -16 -74 -11 -4 -18 -11 -15 -16 11
-18 -16 -51 -37 -46 -11 3 -28 1 -38 -6 -14 -8 -22 -8 -34 2 -13 11 -16 34
-16 108 0 82 2 94 16 89 23 -9 54 12 54 35 0 21 -1 20 -19 -2 -16 -20 -21 -21
-35 -10 -19 16 -22 101 -5 118 17 17 39 4 39 -21z m-70 -100 l0 -125 -26 -3
c-28 -3 -54 -32 -41 -44 4 -4 13 1 21 11 19 27 46 12 46 -25 0 -33 -19 -47
-47 -35 -10 4 -29 8 -43 9 -19 1 -26 7 -28 26 -2 13 -13 30 -23 38 -24 17 -25
67 -1 82 16 10 16 10 0 20 -22 13 -23 39 -3 46 8 4 15 19 15 35 0 34 30 54 67
44 21 -5 24 -3 19 10 -8 22 1 35 25 35 18 0 19 -8 19 -124z"/>
<path d="M1479 2449 c-15 -9 -6 -13 24 -10 12 2 17 -5 17 -24 0 -15 4 -24 10
-20 6 3 10 15 10 26 0 16 5 19 20 14 11 -4 20 -2 20 4 0 6 -3 11 -7 12 -49 7
-82 6 -94 -2z"/>
<path d="M1363 2568 c1 -17 -4 -24 -21 -26 -24 -4 -21 -22 5 -22 9 0 22 -8 29
-17 11 -15 12 -12 9 27 -4 62 -4 60 -15 60 -5 0 -9 -10 -7 -22z"/>
<path d="M2868 2828 c-28 -22 -31 -55 -9 -77 26 -26 53 -27 74 -3 22 25 21 48
-3 72 -23 23 -40 25 -62 8z"/>
<path d="M2030 2481 l0 -301 40 0 40 0 0 124 0 124 98 4 c143 6 201 41 222
134 17 75 -15 150 -81 189 -29 17 -56 21 -176 23 l-143 4 0 -301z m253 228
c45 -12 70 -47 70 -97 0 -91 -30 -112 -158 -112 l-85 0 0 110 0 110 68 0 c37
0 84 -5 105 -11z"/>
<path d="M3630 2493 c-57 -159 -105 -294 -108 -300 -3 -9 8 -13 36 -13 l40 0
24 65 23 66 134 -3 133 -3 23 -60 c22 -59 22 -60 64 -63 24 -2 41 1 40 6 -2 5
-51 140 -109 300 l-105 292 -46 0 -45 0 -104 -287z m205 32 c26 -75 45 -138
43 -141 -3 -2 -51 -3 -106 -2 l-100 3 51 142 c28 78 54 140 57 138 4 -3 29
-65 55 -140z"/>
<path d="M4130 2480 l0 -300 40 0 40 0 0 300 0 300 -40 0 -40 0 0 -300z"/>
<path d="M2682 2644 c-18 -9 -42 -28 -52 -42 l-20 -25 0 37 c0 35 -1 36 -40
36 l-40 0 0 -235 0 -235 40 0 40 0 0 145 c0 195 19 237 111 253 42 7 44 9 44
42 0 30 -4 35 -25 38 -14 1 -40 -5 -58 -14z"/>
<path d="M2860 2415 l0 -235 38 0 37 0 -3 235 -3 235 -34 0 -35 0 0 -235z"/>
<path d="M3020 2642 c0 -4 40 -109 88 -232 l89 -225 47 0 48 0 83 213 c110
281 104 252 57 252 l-40 0 -26 -67 c-14 -38 -46 -124 -71 -192 -25 -68 -47
-126 -49 -128 -2 -2 -27 61 -56 139 -29 79 -61 167 -72 196 -19 51 -20 52 -59
52 -21 0 -39 -3 -39 -8z"/>
</g>
</svg>
